<svg width="271" height="290" viewBox="0 0 271 290" fill="none" xmlns="http://www.w3.org/2000/svg">
<path d="M270.338 281.994C270.338 281.994 237.957 289.903 198.014 289.903C158.071 289.903 125.691 281.994 125.691 281.994C125.691 281.994 158.071 274.084 198.014 274.084C237.957 274.084 270.338 281.994 270.338 281.994Z" fill="#CBB59B"/>
<path d="M176.822 278.395C177.151 277.837 177.392 277.07 176.98 276.276C175.782 273.958 170.991 265.92 170.326 262.981C169.811 260.698 170.569 257.226 170.934 255.789L157.566 246.21C154.117 248.879 148.42 254.774 147.233 256.013L176.822 278.395Z" fill="#46689C"/>
<path d="M174.538 281.305L144.948 258.923L147.233 256.013L176.822 278.395L174.538 281.305Z" fill="white"/>
<path d="M167.195 261.911L167.055 261.966C166.71 262.112 166.309 262.433 166.533 262.846C166.646 263.057 166.868 263.189 167.085 263.295C167.833 263.663 168.649 263.844 169.472 263.958C170.357 264.083 171.305 264.209 172.173 263.921C173.069 263.624 172.948 262.621 172.132 262.23C170.72 261.556 168.689 261.345 167.195 261.911Z" fill="white"/>
<path d="M168.194 265.152L168.055 265.207C167.709 265.353 167.308 265.674 167.532 266.087C167.645 266.299 167.867 266.429 168.084 266.537C168.832 266.904 169.648 267.084 170.471 267.2C171.356 267.323 172.305 267.45 173.172 267.162C174.068 266.865 173.946 265.861 173.131 265.471C171.719 264.797 169.688 264.584 168.194 265.152Z" fill="white"/>
<path d="M170.126 268.251L169.986 268.307C169.642 268.453 169.24 268.774 169.463 269.188C169.577 269.398 169.799 269.528 170.017 269.635C170.765 270.004 171.579 270.183 172.403 270.299C173.288 270.423 174.236 270.549 175.104 270.261C176 269.964 175.879 268.961 175.062 268.571C173.652 267.896 171.62 267.685 170.126 268.251Z" fill="white"/>
<path d="M210.714 208.622L192.995 189.95L153.784 244.46L172.975 259.031L210.714 208.622Z" fill="#6A262D"/>
<path d="M222.565 143.225L197.23 142.127C197.938 155.838 198.845 180.611 196.468 185.669C196.398 185.821 195.87 186.619 195.009 187.89L214.941 207.14C214.941 207.14 222.884 195.317 223.978 190.773C226.761 179.211 222.523 145.531 222.565 143.225Z" fill="#6A262D"/>
<path d="M173.327 142.49C173.327 142.49 193.194 198.62 198.048 211.879L202.335 267.44L223.771 263.948L223.521 257.6L221.413 203.465L204.833 143.714L179.769 142.746L173.327 142.49Z" fill="#864549"/>
<path d="M218.538 211.217C217.079 213.744 214.197 213.534 212.029 211.005C210.868 209.65 209.941 208.002 209.597 206.176C209.252 204.349 209.539 202.338 210.569 200.866C211.6 199.395 213.418 198.576 215.043 199.067C216.969 199.648 218.172 201.781 218.812 203.875C219.336 205.586 219.613 207.437 219.261 209.197C219.101 209.999 218.852 210.672 218.538 211.217Z" fill="#9C5B61"/>
<path d="M241.533 276.55C241.394 275.918 241.047 275.192 240.2 274.874C237.727 273.944 228.683 271.136 226.179 269.391C224.236 268.037 222.421 264.962 221.708 263.654L205.262 265.354C204.537 269.608 204.355 277.738 204.323 279.439L241.533 276.55Z" fill="#46689C"/>
<path d="M241.834 280.216L204.626 283.105L204.323 279.439L241.533 276.55L241.834 280.216Z" fill="white"/>
<path d="M223.13 270.662L223.065 270.794C222.91 271.13 222.833 271.633 223.28 271.793C223.509 271.874 223.762 271.825 223.996 271.761C224.802 271.541 225.528 271.138 226.216 270.681C226.956 270.189 227.744 269.658 228.188 268.873C228.65 268.061 227.873 267.397 227.002 267.645C225.497 268.075 223.848 269.256 223.13 270.662Z" fill="white"/>
<path d="M226.087 272.408L226.022 272.541C225.866 272.876 225.789 273.379 226.236 273.539C226.465 273.621 226.719 273.571 226.953 273.508C227.758 273.288 228.484 272.885 229.173 272.428C229.912 271.936 230.701 271.405 231.145 270.619C231.606 269.808 230.829 269.144 229.958 269.392C228.452 269.821 226.804 271.004 226.087 272.408Z" fill="white"/>
<path d="M229.638 273.435L229.573 273.568C229.417 273.903 229.34 274.407 229.787 274.566C230.016 274.648 230.269 274.598 230.503 274.535C231.308 274.315 232.034 273.912 232.723 273.454C233.463 272.964 234.251 272.432 234.696 271.647C235.156 270.836 234.38 270.171 233.509 270.419C232.003 270.848 230.355 272.031 229.638 273.435Z" fill="white"/>
<path d="M173.327 142.49C173.327 142.49 193.194 198.62 198.048 211.879L202.335 267.44L223.771 263.948L223.521 257.6L206.757 258.597C206.757 258.597 203.216 213.502 202.176 208.669C201.226 204.264 182.99 151.986 179.769 142.746L173.327 142.49Z" fill="#6A262D"/>
<path d="M219.418 55.1195C219.418 55.1195 226.729 59.0513 228.92 61.946C231.112 64.8406 236.982 88.3809 236.982 88.3809C236.982 88.3809 247.621 103.705 248.355 107.018C249.089 110.332 244.687 123.632 241.384 124.87C238.083 126.108 219.418 122.085 219.418 122.085L212.465 88.3809L219.418 55.1195Z" fill="#F1435B"/>
<path d="M185.035 51.7174L171.306 55.627C171.306 55.627 164.251 109.774 164.251 113.08C164.251 116.385 166.468 126.841 166.468 126.841C166.468 126.841 162.325 138.398 164.251 140.599C166.176 142.8 187.618 148.537 206.063 148.145C224.508 147.752 228.877 140.676 228.912 139.361C228.976 136.884 224.558 129.1 224.558 129.1C224.558 129.1 229.152 121.614 228.912 118.586C228.671 115.56 219.418 55.1195 219.418 55.1195L211.746 53.7163L185.035 51.7174Z" fill="#F1435B"/>
<path d="M219.28 63.7397L221.024 85.6526L223.771 83.7109L219.28 63.7397Z" fill="#EF2D2E"/>
<path d="M211.746 53.7162C209.815 57.1287 206.311 61.4209 200.668 61.9069C193.311 62.5481 187.367 55.1369 185.035 51.7173C188.409 50.7755 191.574 50.0421 191.574 50.0421L204.234 50.5902C204.234 50.5902 208.178 52.088 211.746 53.7162Z" fill="#F68672"/>
<path d="M205.199 54.8331L200.824 57.5917C200.824 57.5917 193.291 52.889 191.571 50.0389L191.473 48.9428L191.107 42.39L204.379 38.4103C204.379 38.4103 204.144 40.7561 204.056 43.7502C203.941 47.5428 204.065 52.3616 205.199 54.8331Z" fill="#F68672"/>
<path d="M204.056 43.7502C200.568 45.6394 194.277 48.9977 193.213 49.3509C192.638 49.5338 192.024 49.2992 191.473 48.9428L191.107 42.39L204.379 38.4104C204.379 38.4104 204.144 40.7561 204.056 43.7502Z" fill="#F36269"/>
<path d="M207.261 37.2323C207.261 37.2323 206.901 38.1407 205.419 39.3418H205.416C205.114 39.5884 204.761 39.8477 204.357 40.1134C202.811 41.1236 188.516 46.5294 186.366 46.1476C184.216 45.765 182.501 38.2465 182.422 37.4606C181.935 32.6362 180.665 17.7376 180.665 17.7376C186.699 1.82391 205.365 11.0097 207.458 12.6889C209.552 14.3681 207.261 37.2323 207.261 37.2323Z" fill="#F68672"/>
<path d="M205.417 39.3418C205.114 39.5884 204.761 39.8477 204.357 40.1134C202.812 41.1236 188.516 46.5294 186.367 46.1476C184.216 45.765 182.501 38.2465 182.422 37.4606C183.627 40.7824 184.954 45.3609 186.491 45.283C188.807 45.1669 203.673 40.1643 205.417 39.3418Z" fill="#F9AA7F"/>
<path d="M182.172 22.4426C182.172 22.4426 184.502 18.8019 186.039 20.065C187.578 21.3282 186.941 21.5191 186.941 21.5191L182.172 22.4426Z" fill="#F46F2E"/>
<path d="M202.495 18.9976C202.495 18.9976 197.064 14.1485 195.373 16.3328C194.385 17.6079 195.27 18.2777 195.27 18.2777L202.495 18.9976Z" fill="#F46F2E"/>
<path d="M183.716 26.8247C183.667 27.9487 184.196 28.8849 184.896 28.9151C185.596 28.9454 186.202 28.0584 186.251 26.9345C186.299 25.8105 185.771 24.8743 185.071 24.844C184.371 24.8138 183.764 25.7 183.716 26.8247Z" fill="#121414"/>
<path d="M182.671 25.7899C182.671 25.7899 183.089 26.4095 183.806 26.7364C184.522 27.0626 185.265 26.9727 185.265 26.9727C185.265 26.9727 184.845 26.353 184.13 26.0269C183.413 25.7 182.671 25.7899 182.671 25.7899Z" fill="white"/>
<path d="M199.292 25.2132C199.233 26.5782 198.495 27.656 197.645 27.6194C196.795 27.582 196.154 26.4453 196.212 25.0795C196.271 23.7138 197.009 22.6367 197.86 22.6733C198.71 22.7107 199.351 23.8474 199.292 25.2132Z" fill="#121414"/>
<path d="M200.666 24.0709C200.666 24.0709 200.093 24.7765 199.192 25.097C198.291 25.4168 197.402 25.2299 197.402 25.2299C197.402 25.2299 197.974 24.5235 198.876 24.2038C199.777 23.884 200.666 24.0709 200.666 24.0709Z" fill="white"/>
<path d="M195.854 38.9695C194.551 39.5542 192.991 39.5327 191.706 38.9115C192.132 39.5932 192.752 40.0116 193.555 40.0163C194.36 40.0203 195.286 39.5391 195.854 38.9695Z" fill="#F14568"/>
<path d="M184.697 33.1119C184.449 33.6934 183.17 33.7069 181.839 33.1413C180.506 32.5758 179.627 31.6467 179.874 31.0644C180.121 30.483 181.4 30.4702 182.733 31.0358C184.064 31.6006 184.943 32.5304 184.697 33.1119Z" fill="#F36269"/>
<path d="M201.845 31.0915C202.037 31.9927 200.519 33.0809 198.456 33.5216C196.391 33.9614 194.562 33.5876 194.369 32.6863C194.177 31.7843 195.694 30.6969 197.759 30.2563C199.823 29.8156 201.653 30.1902 201.845 31.0915Z" fill="#F36269"/>
<path d="M199.024 35.0934C199.024 35.0934 198.931 35.2103 198.767 35.4131C198.604 35.6231 198.337 35.9015 197.974 36.2141C197.257 36.8418 196.073 37.5489 194.614 37.8512C193.156 38.1487 191.79 37.9673 190.882 37.6746C190.426 37.5298 190.071 37.3795 189.837 37.2514C189.607 37.1289 189.475 37.0581 189.475 37.0581C189.475 37.0581 189.621 37.0915 189.874 37.1496C190.127 37.2156 190.5 37.28 190.955 37.3349C191.867 37.4503 193.129 37.4463 194.475 37.1726C195.82 36.8918 196.981 36.3979 197.774 35.9318C198.17 35.7011 198.488 35.4943 198.694 35.3344C198.904 35.1809 199.024 35.0934 199.024 35.0934Z" fill="#F14568"/>
<path d="M193.252 31.6738C191.706 32.7794 189.496 32.8622 187.872 31.8742C188.078 33.174 189.309 34.2876 190.624 34.247C191.94 34.2065 193.127 32.9847 193.252 31.6738Z" fill="#F36269"/>
<path d="M190.239 33.8835C189.885 33.8024 189.469 33.6497 189.081 33.3991C188.693 33.1485 188.364 32.7946 188.291 32.373C188.209 31.9586 188.431 31.6165 188.8 31.3715C189.053 31.2092 189.333 31.1345 189.605 31.1082C189.719 31.0971 189.823 31.0939 189.924 31.1011C189.936 30.9698 189.939 30.8266 189.946 30.6636C189.96 29.9787 189.922 29.06 189.736 28.0434C189.383 26.0754 188.608 24.5999 188.513 24.4297C188.512 24.6246 188.559 26.2743 188.911 28.1897C189.072 29.1101 189.28 29.935 189.457 30.5809C189.155 30.5498 188.82 30.5856 188.477 30.7423C188.188 30.868 187.909 31.0661 187.691 31.3779C187.473 31.7 187.389 32.1272 187.468 32.5098C187.6 33.3013 188.224 33.7968 188.738 34.0283C189.274 34.263 189.795 34.3314 190.21 34.2988C190.635 34.2789 190.959 34.1802 191.168 34.0927C191.324 34.0267 191.425 33.9718 191.47 33.9488C191.375 33.9639 190.893 34.0251 190.239 33.8835Z" fill="#F14568"/>
<path d="M213.65 22.1928C214.445 23.0989 214.794 24.3915 214.551 25.5751C214.445 26.0826 214.263 26.5797 213.999 27.0204C213.652 27.6249 213.155 28.1316 212.522 28.4331C212.357 27.6456 212.013 26.59 211.694 26.178C210.548 25.6236 209.297 25.875 208.408 26.7857C207.512 27.6949 207.287 29.1848 207.858 30.3271C206.862 29.6485 206.199 28.511 206.083 27.3123C205.861 28.0211 205.639 28.7234 205.417 29.4258C204.289 26.668 204.787 23.3001 206.686 20.9957C205.964 21.0562 205.242 21.1087 204.528 21.1699C205.518 20.9217 206.186 19.6347 205.942 18.5688C205.651 17.3239 204.565 16.4275 203.461 15.7752C202.365 15.1237 201.156 14.5964 200.302 13.6418C200.236 14.0984 200.179 14.547 200.12 15.0036C198.999 14.5876 198.167 13.4875 198.065 12.2975C197.113 14.3299 195.178 15.8754 192.977 16.3614C192.99 15.5207 192.695 14.5741 192.7 13.7333C192.603 15.1213 191.888 16.4442 190.795 17.2921C189.694 18.1401 188.225 18.4964 186.859 18.2387C187.323 18.1059 187.439 17.5522 187.415 17.0765C186.334 18.6826 184.513 19.7667 182.584 19.9505C180.657 20.135 178.66 19.4136 177.296 18.0462C178.707 18.673 180.581 17.6294 180.793 16.0934C180.847 15.7442 180.816 15.391 180.746 15.0434C179.179 15.1898 177.564 14.8668 176.182 14.096C176.48 14.1159 176.772 14.0674 177.045 13.9568C177.707 13.6951 178.253 13.0993 178.557 12.4391C178.988 11.5013 179.056 10.4561 179.238 9.4387C179.411 8.42848 179.74 7.37134 180.533 6.71749C180.78 6.51385 181.085 6.37385 181.401 6.2959C180.525 5.66113 180.064 4.48627 180.108 2.78163C181.404 3.76321 183.265 3.55321 184.755 2.89856C186.244 2.24471 187.552 1.20665 189.062 0.591774C191.305 -0.31344 193.93 -0.161522 196.095 0.919487C196.534 0.678467 196.994 0.476433 197.473 0.351549C199.084 -0.0764008 200.877 0.193256 202.285 1.08813C204.936 0.460526 207.709 1.0937 209.558 3.09424C211.407 5.10194 212.072 8.12304 211.24 10.7186C211.946 10.2978 212.661 9.86983 213.368 9.44188C213.738 10.4601 213.47 11.6723 212.718 12.4431C214.122 12.1981 215.636 12.7303 216.569 13.8033C215.837 13.925 215.097 14.0459 214.365 14.1668C215.844 14.9885 216.763 16.7194 216.614 18.4113C216.464 20.0961 215.25 21.6424 213.65 22.1928Z" fill="#F35E23"/>
<path d="M216.614 18.4113C216.526 19.3794 216.088 20.3093 215.429 21.0228C214.932 21.5517 214.325 21.9614 213.65 22.1929C214.445 23.0989 214.794 24.3915 214.551 25.5751C214.445 26.0826 214.263 26.5797 213.999 27.0204C212.561 26.4763 211.389 25.109 211.387 23.5483C210.595 22.7791 210.192 21.6377 210.332 20.5415C209.617 20.9766 209.095 21.7116 208.915 22.523C209.077 20.1883 209.247 17.8474 209.41 15.5056C208.775 16.052 208.131 16.5977 207.496 17.1442C208.414 14.9957 207.311 12.2085 205.172 11.2666C205.132 11.8155 205.085 12.3572 205.047 12.9061C203.184 12.4662 201.603 11.005 201.015 9.18896C200.579 10.0576 200.152 10.919 199.717 11.7797C199.198 10.8697 198.68 9.95257 198.16 9.03463C196.908 10.0361 195.656 11.0376 194.403 12.047C194.063 11.0837 193.722 10.1204 193.381 9.1643C193.078 11.5538 191.296 13.6872 188.991 14.4063C188.94 13.6538 188.881 12.8941 188.83 12.1424C187.809 14.3315 185.389 15.8031 182.968 15.6901C183.372 14.66 183.769 13.6212 184.166 12.5903C182.165 14.1024 179.458 14.6051 177.045 13.9568C177.707 13.6951 178.253 13.0994 178.557 12.4391C178.827 11.8537 178.954 11.2324 179.058 10.5937C179.12 10.2135 179.167 9.82531 179.238 9.43872C179.411 8.42851 179.74 7.37137 180.533 6.71751C180.78 6.51388 181.085 6.37388 181.401 6.29592C180.525 5.66116 180.064 4.48629 180.108 2.78166C181.404 3.76324 183.265 3.55324 184.755 2.89858C186.244 2.24473 187.551 1.20668 189.062 0.591799C191.305 -0.313417 193.93 -0.161497 196.095 0.919512C196.534 0.678492 196.994 0.476458 197.473 0.351572C199.084 -0.076376 200.877 0.193281 202.285 1.08815C204.936 0.46055 207.709 1.09372 209.558 3.09426C211.407 5.10196 212.072 8.12306 211.24 10.7186C211.946 10.2978 212.661 9.86985 213.368 9.44191C213.738 10.4601 213.47 11.6723 212.718 12.4431C214.122 12.1981 215.636 12.7303 216.569 13.8033C215.837 13.925 215.097 14.0459 214.365 14.1668C215.844 14.9885 216.763 16.7194 216.614 18.4113Z" fill="#F46F2E"/>
<path d="M216.614 18.4113C216.526 19.3794 216.088 20.3093 215.429 21.0228C213.763 20.1088 212.7 18.1576 212.89 16.2533C212.578 16.729 212.267 17.2055 211.948 17.6811C211.875 16.3543 211.811 15.0275 211.738 13.7015C211.167 14.3347 210.588 14.9671 210.019 15.601C210 13.3507 209.203 11.1044 207.796 9.34488C207.219 9.74897 206.636 10.1443 206.06 10.5476C206.733 9.3218 207.434 7.96797 207.165 6.60219C206.944 5.51323 206.065 4.58733 204.991 4.31211C203.917 4.03609 202.698 4.41949 201.981 5.26744C201.997 4.21268 201.183 3.20563 200.143 3.00757C199.112 2.80234 197.975 3.42598 197.589 4.40437C196.207 3.457 194.259 3.73938 192.843 4.64221C191.426 5.54504 190.424 6.95536 189.454 8.32034C189.321 7.34274 189.187 6.35798 189.054 5.37322C188.382 7.80727 186.037 9.6726 183.515 9.7768C184.056 8.95909 184.588 8.13262 185.129 7.31491C183.057 8.32671 181.036 9.41726 179.058 10.5937C179.12 10.2135 179.167 9.82532 179.238 9.43874C179.411 8.42852 179.74 7.37138 180.533 6.71753C180.78 6.5139 181.085 6.37389 181.401 6.29594C180.525 5.66117 180.064 4.48631 180.108 2.78167C181.404 3.76325 183.265 3.55325 184.755 2.8986C186.244 2.24475 187.551 1.20669 189.062 0.591814C191.305 -0.3134 193.93 -0.16148 196.095 0.919527C196.534 0.678509 196.994 0.476475 197.473 0.351589C199.084 -0.0763588 200.877 0.193296 202.285 1.08817C204.936 0.460566 207.709 1.09374 209.558 3.09428C211.407 5.10198 212.072 8.12308 211.24 10.7186C211.946 10.2978 212.661 9.86987 213.368 9.44192C213.738 10.4601 213.47 11.6723 212.718 12.4431C214.122 12.1981 215.636 12.7303 216.569 13.8033C215.837 13.9251 215.097 14.0459 214.365 14.1669C215.844 14.9885 216.763 16.7194 216.614 18.4113Z" fill="#F68640"/>
<path d="M205.171 37.7136C208.071 37.6117 210.25 35.9883 211.439 34.601C211.706 34.2884 211.923 33.9877 212.087 33.7196C212.977 32.2584 213.439 27.0761 211.367 25.7779C209.914 24.8687 208.776 26.0468 208.227 26.8351V26.8383C207.992 27.1731 207.863 27.4372 207.863 27.4372L205.171 37.7136Z" fill="#F9AA7F"/>
<path d="M205.171 37.7136C208.071 37.6117 210.25 35.9883 211.439 34.601C211.543 34.4586 211.634 34.3234 211.712 34.1937C212.602 32.7325 213.065 27.551 210.991 26.2536C209.815 25.5162 208.845 26.1486 208.227 26.8351V26.8383C207.992 27.1731 207.863 27.4372 207.863 27.4372L205.171 37.7136Z" fill="#F68672"/>
<path d="M211.859 29.9309C211.947 30.3509 211.861 30.7805 211.707 31.1846C211.051 32.9011 209.253 34.1555 207.534 35.3177C208.072 34.4944 208.298 33.5486 208.236 32.6148C208.214 32.2894 208.158 31.9649 208.169 31.6404C208.213 30.3334 211.335 27.4484 211.859 29.9309Z" fill="#F36269"/>
<path d="M206.676 35.7767L206.773 35.7273C206.834 35.6931 206.933 35.6494 207.047 35.5786C207.277 35.4394 207.596 35.2135 207.902 34.8722C208.206 34.5318 208.489 34.0712 208.637 33.5184C208.774 32.9664 208.779 32.3165 208.507 31.6785C208.479 31.5982 208.437 31.521 208.396 31.4447L208.365 31.3874L208.361 31.381L208.362 31.3826L208.36 31.3818H208.36L208.365 31.3723L208.395 31.3238L208.455 31.2267L208.579 31.0382C208.748 30.7892 208.928 30.557 209.112 30.3422C209.297 30.1266 209.488 29.9294 209.674 29.7504C209.863 29.5722 210.044 29.4052 210.223 29.2827C210.4 29.1602 210.593 29.083 210.771 29.0679C210.951 29.056 211.117 29.1029 211.227 29.1641C211.34 29.2262 211.4 29.3025 211.424 29.3582L211.449 29.4465L211.448 29.3535C211.44 29.2922 211.397 29.1991 211.286 29.1093C211.177 29.0226 211.003 28.9366 210.767 28.9207C210.533 28.9088 210.276 28.9764 210.044 29.0941C209.811 29.2127 209.599 29.3638 209.375 29.5308C209.154 29.6995 208.928 29.8904 208.71 30.1044C208.492 30.3183 208.279 30.5546 208.086 30.8123L207.943 31.0096L207.874 31.1114L207.783 31.2546L207.72 31.3556L207.773 31.4622L207.851 31.6133L207.947 31.8162C208.183 32.3698 208.216 32.9401 208.146 33.4468C208.063 33.9535 207.872 34.399 207.648 34.7489C207.423 35.0997 207.172 35.3567 206.984 35.5253C206.891 35.6096 206.808 35.6677 206.756 35.7114L206.676 35.7767Z" fill="#D03B58"/>
<path d="M177.076 194.371C177.076 197.45 169.079 198.614 163.613 198.493C158.361 198.607 150.796 197.539 150.199 194.735C150.163 194.616 150.151 194.496 150.151 194.371C150.151 191.769 153.134 177.09 154.537 170.335C154.972 168.264 155.253 166.933 155.253 166.933H171.967C171.967 166.933 172.247 168.264 172.683 170.335C174.086 177.09 177.076 191.769 177.076 194.371Z" fill="#46689C"/>
<path d="M172.683 170.335C172.247 168.264 171.967 166.933 171.967 166.933H168.995H155.253C155.253 166.933 154.972 168.264 154.537 170.335H169.766C171.444 177.833 173.872 189.382 173.394 191.178C172.719 193.75 161.023 198.249 150.199 194.735C150.796 197.539 158.361 198.607 163.613 198.493C169.079 198.614 177.076 197.45 177.076 194.371C177.076 191.769 174.086 177.09 172.683 170.335Z" fill="#2C507E"/>
<path d="M173.395 168.315H153.827V163.849H173.395V168.315Z" fill="#46689C"/>
<path d="M169.561 184.799H154.674V178.135H169.561V184.799Z" fill="white"/>
<path d="M171.306 153.672C170.904 154.093 170.203 154.19 169.701 153.895C169.256 156.371 168.811 158.85 168.365 161.327C168.26 161.913 168.079 162.595 167.524 162.811C166.795 163.093 166.098 162.355 165.688 161.689C164.721 160.116 164.091 158.461 163.435 156.789H161.195C161.311 157.822 162.112 159.152 162.504 159.84C162.897 160.528 165.085 166.914 165.223 166.941C166.677 167.234 168.197 167.197 169.634 166.83C169.247 162.392 169.82 157.872 171.306 153.672Z" fill="#2AB57E"/>
<path d="M174.493 148.087C175.413 146.796 175.012 144.764 173.671 143.918C172.33 143.072 170.324 143.586 169.555 144.973C169.255 143.606 167.89 142.555 166.491 142.616C165.093 142.676 163.823 143.84 163.642 145.228C162.703 143.68 160.689 142.875 158.943 143.349C157.195 143.823 155.865 145.536 155.837 147.347C154.884 147.109 153.83 147.121 152.969 147.595C152.107 148.067 151.501 149.068 151.682 150.034C151.86 151 152.962 151.746 153.878 151.391C153.028 152.056 152.768 153.368 153.302 154.307C153.836 155.245 155.095 155.695 156.102 155.305C154.795 157.119 155.829 160.101 157.978 160.719C160.176 161.349 162.362 159.422 162.461 157.259L162.497 157.327C162.508 158.362 163.157 159.335 164.027 159.906C164.941 160.506 166.056 160.723 167.148 160.77C170.203 160.898 175.099 158.841 173.932 155.005L173.93 154.922C175.854 154.741 177.987 154.204 178.232 151.863C178.442 149.849 176.509 147.896 174.493 148.087Z" fill="#2EAE7D"/>
<path d="M159.458 185.612C159.386 189.437 159.305 192.899 159.249 195.198C159.209 196.794 158.162 198.058 156.881 198.058H144.453C143.172 198.058 142.125 196.794 142.085 195.198C142.028 192.899 141.948 189.437 141.876 185.612C141.787 180.955 141.722 175.776 141.739 171.541C141.763 166.994 141.876 163.551 142.157 162.989C143.108 161.152 146.346 159.316 146.346 159.316L147.111 143.969H154.215L154.989 159.316C154.989 159.316 158.226 161.152 159.177 162.989C159.458 163.551 159.571 166.994 159.587 171.541C159.612 175.776 159.546 180.955 159.458 185.612Z" fill="#C07E53"/>
<path d="M154.305 145.259H147.028C146.497 145.259 146.066 144.829 146.066 144.297V143.469C146.066 142.938 146.497 142.508 147.028 142.508H154.305C154.837 142.508 155.267 142.938 155.267 143.469V144.297C155.267 144.829 154.837 145.259 154.305 145.259Z" fill="#363950"/>
<path d="M159.458 185.612H141.876C141.787 180.955 141.722 175.776 141.739 171.541H159.587C159.612 175.776 159.546 180.955 159.458 185.612Z" fill="#F68640"/>
<path d="M199.493 157.258V192.773H174.748V157.258H199.493Z" fill="#5B9FDC"/>
<path d="M183.036 157.258H177.626V155.074H183.036V157.258Z" fill="#363950"/>
<path d="M199.493 174.087V179.673L199.318 179.738C197.071 180.561 194.952 181.991 193.784 184.086C192.961 185.552 192.506 187.42 191.011 188.19C189.277 189.083 187.247 187.963 185.442 187.21C182.08 185.792 178.204 185.703 174.748 186.848V168.18C176.628 169.044 178.899 169.172 180.89 168.53C184.152 167.479 186.651 164.748 188.181 161.688C188.886 160.27 189.418 158.787 189.85 157.258H192.979C192.687 160.912 193.352 164.642 194.946 167.94C196.055 170.252 197.614 172.342 199.493 174.087Z" fill="white"/>
<path d="M179.959 173.852L181.03 176.415L182.101 173.852H183.816V178.76H182.402V176.071L181.562 178.284H180.498L179.658 176.071V178.76H178.243V173.852H179.959Z" fill="#363950"/>
<path d="M186.144 173.852V178.76H184.519V173.852H186.144Z" fill="#363950"/>
<path d="M188.469 173.852V177.409H190.514V178.76H186.845V173.852H188.469Z" fill="#363950"/>
<path d="M194.058 178.76L193.036 177.073L192.56 177.605V178.76H190.936V173.852H192.56V175.554L194.023 173.852H195.893L194.143 175.826L195.998 178.76H194.058Z" fill="#363950"/>
<path d="M194.706 196.088C195.042 196.174 195.392 196.257 195.735 196.198C196.077 196.139 196.413 195.903 196.481 195.561C196.569 195.115 196.196 194.722 195.84 194.438C194.714 193.538 193.442 192.821 192.088 192.325C194.101 192.542 196.176 192.163 197.983 191.246C198.568 190.949 199.209 190.305 198.867 189.745C198.658 189.406 198.201 189.34 197.804 189.32C196.259 189.246 194.706 189.343 193.182 189.611C194.446 188.941 195.407 187.725 195.771 186.341C195.869 185.968 195.887 185.493 195.564 185.281C195.266 185.085 194.869 185.246 194.56 185.425C193.337 186.132 192.263 187.096 191.429 188.235C191.808 187.703 192.201 187.135 192.249 186.483C192.295 185.832 191.841 185.097 191.187 185.097C190.676 185.097 190.273 185.515 189.959 185.917C188.99 187.151 186.128 191.369 187.092 192.987C187.548 193.753 189.692 194.346 190.491 194.678C191.86 195.246 193.27 195.717 194.706 196.088Z" fill="#2EAE7D"/>
<path d="M184.783 188.188C183.427 188.103 182.087 188.458 180.798 188.926C180.61 188.993 180.414 189.072 180.227 189.148C180.087 189.197 179.958 189.251 179.822 189.304C176.65 190.564 173.386 192.012 170.303 193.722C170.124 193.82 169.944 193.921 169.766 194.026C167.908 195.075 166.121 196.228 164.459 197.49C162.087 199.293 162.958 200.538 165.58 200.461C166.512 200.434 167.445 200.385 168.381 200.309C168.583 200.301 168.791 200.282 168.995 200.268C171.083 200.095 173.171 199.819 175.237 199.444C175.436 199.404 175.636 199.365 175.836 199.325C176.889 199.123 177.939 198.893 178.975 198.635C179.173 198.587 179.366 198.536 179.562 198.481C180.728 198.181 181.882 197.844 183.025 197.479C183.877 197.204 184.744 196.896 185.542 196.49C185.746 196.389 185.945 196.283 186.128 196.168C186.56 195.914 186.966 195.621 187.335 195.284C188.526 194.177 189.271 192.442 188.769 190.895C188.244 189.269 186.485 188.298 184.783 188.188Z" fill="#F68640"/>
<path d="M167.893 198.197C168.053 198.897 168.215 199.605 168.38 200.309C168.583 200.301 168.791 200.282 168.995 200.268C168.827 199.534 168.66 198.8 168.493 198.065C168.396 197.684 167.805 197.813 167.893 198.197Z" fill="#F46F2E"/>
<path d="M170.303 193.722C170.124 193.82 169.944 193.921 169.766 194.026C170.24 195.46 170.648 196.917 170.989 198.388C171.076 198.772 171.676 198.641 171.589 198.257C171.236 196.726 170.807 195.212 170.303 193.722Z" fill="#F46F2E"/>
<path d="M173.876 195.073C174.456 196.487 174.91 197.952 175.237 199.444C175.436 199.404 175.636 199.365 175.836 199.325C175.501 197.778 175.023 196.261 174.418 194.795C174.268 194.429 173.726 194.707 173.876 195.073Z" fill="#F46F2E"/>
<path d="M177.419 192.566C178.158 194.526 178.678 196.565 178.975 198.635C179.173 198.587 179.366 198.536 179.562 198.481C179.256 196.368 178.723 194.292 177.965 192.283C177.829 191.918 177.283 192.201 177.419 192.566Z" fill="#F46F2E"/>
<path d="M180.798 188.926C180.61 188.993 180.414 189.072 180.227 189.148C181.05 191.09 181.553 193.155 181.7 195.266C181.731 195.65 182.34 195.685 182.312 195.288C182.157 193.098 181.643 190.947 180.798 188.926Z" fill="#F46F2E"/>
<path d="M184.634 190.998C184.475 191.085 184.445 191.256 184.498 191.412C185.085 193.043 185.442 194.758 185.542 196.49C185.746 196.389 185.945 196.283 186.128 196.168C185.995 194.451 185.63 192.76 185.048 191.133C184.988 190.977 184.765 190.93 184.634 190.998Z" fill="#F46F2E"/>
<path d="M170.162 166.328C170.108 165.984 170.044 165.631 169.853 165.341C169.662 165.051 169.312 164.836 168.972 164.91C168.528 165.006 168.316 165.506 168.197 165.945C167.821 167.337 167.669 168.79 167.755 170.229C167.151 168.296 165.976 166.544 164.416 165.253C163.911 164.835 163.063 164.503 162.688 165.041C162.459 165.366 162.581 165.813 162.721 166.183C163.267 167.632 163.977 169.017 164.83 170.308C163.711 169.417 162.213 169.018 160.8 169.237C160.418 169.296 159.975 169.469 159.91 169.849C159.849 170.2 160.155 170.5 160.441 170.713C161.578 171.552 162.89 172.152 164.267 172.464C163.628 172.328 162.95 172.194 162.333 172.41C161.717 172.627 161.225 173.338 161.485 173.937C161.688 174.405 162.233 174.608 162.727 174.736C164.246 175.132 169.255 176.075 170.353 174.547C170.874 173.824 170.563 171.62 170.549 170.755C170.523 169.273 170.395 167.793 170.162 166.328Z" fill="#2EAE7D"/>
<path d="M166.873 178.577C167.335 179.855 168.196 180.942 169.139 181.937C169.276 182.084 169.426 182.231 169.571 182.373C169.671 182.483 169.773 182.58 169.874 182.682C172.294 185.089 174.925 187.504 177.721 189.65C177.881 189.775 178.047 189.902 178.214 190.021C179.917 191.307 181.686 192.488 183.507 193.508C186.105 194.965 186.9 193.67 185.784 191.296C185.388 190.451 184.971 189.615 184.529 188.787C184.44 188.607 184.34 188.423 184.245 188.24C183.254 186.395 182.17 184.59 181.001 182.845C180.886 182.678 180.77 182.511 180.655 182.343C180.047 181.457 179.42 180.588 178.769 179.738C178.647 179.576 178.523 179.419 178.394 179.263C177.655 178.312 176.885 177.388 176.096 176.486C175.504 175.814 174.875 175.142 174.185 174.57C174.01 174.425 173.834 174.285 173.656 174.163C173.25 173.868 172.82 173.612 172.363 173.408C170.874 172.757 168.986 172.766 167.767 173.843C166.485 174.972 166.297 176.973 166.873 178.577Z" fill="#F68640"/>
<path d="M182.785 190.078C183.364 189.651 183.949 189.22 184.529 188.787C184.44 188.607 184.34 188.423 184.245 188.24C183.639 188.686 183.033 189.133 182.426 189.579C182.114 189.82 182.469 190.311 182.785 190.078Z" fill="#F46F2E"/>
<path d="M177.721 189.65C177.881 189.775 178.047 189.902 178.214 190.021C179.339 189.015 180.513 188.06 181.726 187.162C182.044 186.928 181.684 186.43 181.367 186.664C180.104 187.597 178.887 188.595 177.721 189.65Z" fill="#F46F2E"/>
<path d="M177.535 185.836C178.602 184.739 179.763 183.74 181.001 182.845C180.886 182.678 180.771 182.511 180.655 182.343C179.368 183.267 178.169 184.31 177.065 185.45C176.789 185.733 177.259 186.119 177.535 185.836Z" fill="#F46F2E"/>
<path d="M173.824 183.584C175.327 182.126 176.989 180.836 178.769 179.738C178.647 179.576 178.523 179.419 178.394 179.263C176.579 180.385 174.887 181.702 173.347 183.198C173.068 183.468 173.544 183.855 173.824 183.584Z" fill="#F46F2E"/>
<path d="M169.139 181.937C169.276 182.084 169.426 182.231 169.57 182.373C171.023 180.844 172.716 179.559 174.594 178.582C174.933 178.403 174.723 177.829 174.369 178.013C172.423 179.028 170.655 180.357 169.139 181.937Z" fill="#F46F2E"/>
<path d="M169.51 177.595C169.653 177.705 169.821 177.664 169.944 177.553C171.206 176.365 172.637 175.354 174.185 174.57C174.01 174.425 173.834 174.285 173.656 174.163C172.134 174.968 170.729 175.978 169.468 177.16C169.35 177.278 169.394 177.502 169.51 177.595Z" fill="#F46F2E"/>
<path d="M198.5 180.85C198.5 181.39 198.134 181.826 197.682 181.826H196.492C196.04 181.826 195.673 181.39 195.673 180.85V169.818C195.673 169.279 196.04 168.842 196.492 168.842H197.682C198.134 168.842 198.5 169.279 198.5 169.818V180.85ZM198.5 197.081C198.5 197.621 198.134 198.058 197.682 198.058H196.492C196.04 198.058 195.673 197.621 195.673 197.081V186.049C195.673 185.51 196.04 185.073 196.492 185.073H197.682C198.134 185.073 198.5 185.51 198.5 186.049V197.081ZM193.144 180.85C193.144 181.39 192.778 181.826 192.325 181.826H191.135C190.683 181.826 190.317 181.39 190.317 180.85V169.818C190.317 169.279 190.683 168.842 191.135 168.842H192.325C192.778 168.842 193.144 169.279 193.144 169.818V180.85ZM193.144 197.081C193.144 197.621 192.778 198.058 192.325 198.058H191.135C190.683 198.058 190.317 197.621 190.317 197.081V186.049C190.317 185.51 190.683 185.073 191.135 185.073H192.325C192.778 185.073 193.144 185.51 193.144 186.049V197.081ZM187.787 180.85C187.787 181.39 187.421 181.826 186.969 181.826H185.779C185.328 181.826 184.961 181.39 184.961 180.85V169.818C184.961 169.279 185.328 168.842 185.779 168.842H186.969C187.421 168.842 187.787 169.279 187.787 169.818V180.85ZM187.787 197.081C187.787 197.621 187.421 198.058 186.969 198.058H185.779C185.328 198.058 184.961 197.621 184.961 197.081V186.049C184.961 185.51 185.328 185.073 185.779 185.073H186.969C187.421 185.073 187.787 185.51 187.787 186.049V197.081ZM182.431 180.85C182.431 181.39 182.065 181.826 181.614 181.826H180.423C179.97 181.826 179.604 181.39 179.604 180.85V169.818C179.604 169.279 179.97 168.842 180.423 168.842H181.614C182.065 168.842 182.431 169.279 182.431 169.818V180.85ZM182.431 197.081C182.431 197.621 182.065 198.058 181.614 198.058H180.423C179.97 198.058 179.604 197.621 179.604 197.081V186.049C179.604 185.51 179.97 185.073 180.423 185.073H181.614C182.065 185.073 182.431 185.51 182.431 186.049V197.081ZM177.076 180.85C177.076 181.39 176.709 181.826 176.256 181.826H175.066C174.615 181.826 174.248 181.39 174.248 180.85V169.818C174.248 169.279 174.615 168.842 175.066 168.842H176.256C176.709 168.842 177.076 169.279 177.076 169.818V180.85ZM177.076 197.081C177.076 197.621 176.709 198.058 176.256 198.058H175.066C174.615 198.058 174.248 197.621 174.248 197.081V186.049C174.248 185.51 174.615 185.073 175.066 185.073H176.256C176.709 185.073 177.076 185.51 177.076 186.049V197.081ZM171.718 180.85C171.718 181.39 171.352 181.826 170.901 181.826H169.71C169.257 181.826 168.892 181.39 168.892 180.85V169.818C168.892 169.279 169.257 168.842 169.71 168.842H170.901C171.352 168.842 171.718 169.279 171.718 169.818V180.85ZM171.718 197.081C171.718 197.621 171.352 198.058 170.901 198.058H169.71C169.257 198.058 168.892 197.621 168.892 197.081V186.049C168.892 185.51 169.257 185.073 169.71 185.073H170.901C171.352 185.073 171.718 185.51 171.718 186.049V197.081ZM166.363 180.85C166.363 181.39 165.996 181.826 165.544 181.826H164.353C163.901 181.826 163.536 181.39 163.536 180.85V169.818C163.536 169.279 163.901 168.842 164.353 168.842H165.544C165.996 168.842 166.363 169.279 166.363 169.818V180.85ZM166.363 197.081C166.363 197.621 165.996 198.058 165.544 198.058H164.353C163.901 198.058 163.536 197.621 163.536 197.081V186.049C163.536 185.51 163.901 185.073 164.353 185.073H165.544C165.996 185.073 166.363 185.51 166.363 186.049V197.081ZM161.005 180.85C161.005 181.39 160.639 181.826 160.188 181.826H158.998C158.546 181.826 158.179 181.39 158.179 180.85V169.818C158.179 169.279 158.546 168.842 158.998 168.842H160.188C160.639 168.842 161.005 169.279 161.005 169.818V180.85ZM161.005 197.081C161.005 197.621 160.639 198.058 160.188 198.058H158.998C158.546 198.058 158.179 197.621 158.179 197.081V186.049C158.179 185.51 158.546 185.073 158.998 185.073H160.188C160.639 185.073 161.005 185.51 161.005 186.049V197.081ZM155.65 180.85C155.65 181.39 155.283 181.826 154.831 181.826H153.641C153.188 181.826 152.823 181.39 152.823 180.85V169.818C152.823 169.279 153.188 168.842 153.641 168.842H154.831C155.283 168.842 155.65 169.279 155.65 169.818V180.85ZM155.65 197.081C155.65 197.621 155.283 198.058 154.831 198.058H153.641C153.188 198.058 152.823 197.621 152.823 197.081V186.049C152.823 185.51 153.188 185.073 153.641 185.073H154.831C155.283 185.073 155.65 185.51 155.65 186.049V197.081ZM150.293 180.85C150.293 181.39 149.927 181.826 149.475 181.826H148.285C147.833 181.826 147.466 181.39 147.466 180.85V169.818C147.466 169.279 147.833 168.842 148.285 168.842H149.475C149.927 168.842 150.293 169.279 150.293 169.818V180.85ZM150.293 197.081C150.293 197.621 149.927 198.058 149.475 198.058H148.285C147.833 198.058 147.466 197.621 147.466 197.081V186.049C147.466 185.51 147.833 185.073 148.285 185.073H149.475C149.927 185.073 150.293 185.51 150.293 186.049V197.081ZM144.936 180.85C144.936 181.39 144.571 181.826 144.119 181.826H142.928C142.476 181.826 142.11 181.39 142.11 180.85V169.818C142.11 169.279 142.476 168.842 142.928 168.842H144.119C144.571 168.842 144.936 169.279 144.936 169.818V180.85ZM144.936 197.081C144.936 197.621 144.571 198.058 144.119 198.058H142.928C142.476 198.058 142.11 197.621 142.11 197.081V186.049C142.11 185.51 142.476 185.073 142.928 185.073H144.119C144.571 185.073 144.936 185.51 144.936 186.049V197.081ZM170.205 165.378H138.501C138.501 165.378 139.738 199.612 140.176 200.278C140.613 200.944 162.688 202.065 170.205 202.054C177.754 202.043 199.923 200.855 200.36 200.189C200.797 199.523 201.909 165.378 201.909 165.378H170.205Z" fill="#DCDDDA"/>
<path d="M204.798 166.981H135.612V160.716H204.798V166.981Z" fill="#BCBEBC"/>
<path d="M177.27 163.78C176.191 163.78 175.446 162.255 175.822 160.821C176.364 158.759 177.001 156.08 177.159 154.353C177.445 151.213 174.921 144.283 174.921 144.283H178.235C178.235 144.283 180.397 151.775 180.329 154.032C180.28 155.658 179.284 160 178.732 162.301C178.518 163.188 177.931 163.78 177.27 163.78Z" fill="#DCDDDA"/>
<path d="M186.582 152.821C185.246 153.513 181.541 143.81 181.541 143.81L178.656 143.823L179.825 148.022L178.404 154.213C178.404 154.213 177.194 154.464 175.695 154.684C175.509 154.713 175.318 154.738 175.124 154.765C174.227 154.886 173.27 154.982 172.435 155C172.355 155.006 172.272 155.005 172.194 155.009C171.776 155.008 170.446 154.793 170.274 154.654L170.309 149.703C170.309 149.703 165.042 145.362 164.665 144.395C164.517 144.011 166.413 135.57 166.651 134.637L171.004 133.559C171.004 133.559 179.03 138.169 179.471 138.452C181.068 139.48 182.711 140.7 183.764 141.916C184.213 142.43 184.552 142.944 184.735 143.442C186.005 146.874 187.915 152.131 186.582 152.821Z" fill="#F68672"/>
<path d="M172.435 155C172.355 155.006 172.272 155.005 172.194 155.009C172.221 154.804 172.262 154.537 172.308 154.214C172.409 153.484 172.531 152.494 172.641 151.421C172.742 150.347 172.77 149.373 172.707 148.638C172.69 148.453 172.673 148.285 172.66 148.137C172.632 147.99 172.611 147.862 172.59 147.758C172.556 147.545 172.536 147.421 172.536 147.421C172.536 147.421 172.609 147.521 172.736 147.712C172.799 147.806 172.876 147.925 172.961 148.063C173.031 148.208 173.109 148.372 173.192 148.561C173.514 149.306 173.752 150.431 173.64 151.61C173.519 152.785 173.134 153.756 172.788 154.408C172.659 154.649 172.538 154.845 172.435 155Z" fill="#D03B58"/>
<path d="M175.695 154.684C175.508 154.713 175.318 154.738 175.123 154.765L175.139 154.637C175.24 153.906 175.361 152.916 175.47 151.845C175.574 150.768 175.601 149.795 175.539 149.06C175.521 148.875 175.507 148.71 175.491 148.563C175.465 148.414 175.44 148.286 175.423 148.182C175.388 147.967 175.367 147.848 175.367 147.848C175.367 147.848 175.438 147.945 175.567 148.134C175.628 148.229 175.707 148.347 175.789 148.487C175.862 148.629 175.94 148.797 176.023 148.982C176.345 149.731 176.583 150.857 176.469 152.033C176.36 153.124 176.02 154.04 175.695 154.684Z" fill="#D03B58"/>
<path d="M171.306 55.6269C171.306 55.6269 162.634 59.064 161.195 60.6685C159.756 62.2721 147.466 105.563 147.466 108.498C147.466 111.433 147.466 116.385 147.466 116.385C147.466 116.385 147.466 131.27 148.383 132.633C149.301 133.996 159.386 140.965 159.386 140.965C159.386 140.965 159.664 144.6 160.581 145.259C161.499 145.919 164.665 144.395 164.665 144.395C164.665 144.395 170.345 134.749 171.7 133.959C171.7 133.959 172.99 131.06 172.931 130.326C172.872 129.592 169.112 127.3 169.112 127.3L166.563 111.8C166.563 111.8 174.127 85.752 174.921 81.533C175.715 77.3139 171.306 55.6269 171.306 55.6269Z" fill="#F1435B"/>
<path d="M167.277 63.7397C167.277 63.7397 173.584 68.6921 175.017 72.1777C176.449 75.6634 175.661 85.6526 175.661 85.6526C175.661 85.6526 178.764 74.9292 178.248 71.8111C177.733 68.6921 167.277 63.7397 167.277 63.7397Z" fill="#EF2D2E"/>
<path d="M172.931 92.7113L166.563 111.8C166.563 111.8 171.198 120.1 171.473 120.994C171.748 121.888 169.747 125.81 169.747 125.81C169.747 125.81 171.473 126.978 172.023 127.598C172.573 128.217 170.991 132.207 170.991 132.207L164.665 144.395C164.665 144.395 172.807 134.017 172.931 133.559C173.055 133.102 174.499 128.148 174.499 127.323C174.499 126.498 172.194 124.915 172.194 124.915C172.194 124.915 174.156 121.407 174.018 120.651C173.88 119.893 168.653 111.088 168.653 111.088L172.931 92.7113Z" fill="#EF2D2E"/>
<path d="M221.024 129.409C221.024 129.409 181.292 131.977 179.604 132.528C177.916 133.078 219.555 139.498 219.555 139.498L195.998 133.559L221.024 129.409Z" fill="#EF2D2E"/>
<path d="M232.561 119.898C232.459 119.982 232.362 120.06 232.255 120.14C231.336 120.831 230.34 121.448 229.291 121.961C227.212 122.984 224.938 123.606 222.667 123.622C222.072 123.629 221.481 123.598 220.894 123.508C220.413 123.453 219.941 123.354 219.464 123.227C216.921 122.545 214.786 121.013 213.138 118.996C212.762 118.54 212.412 118.056 212.09 117.544C210.927 115.724 210.106 113.634 209.689 111.481C209.492 110.459 209.377 109.43 209.365 108.403C209.361 108.229 209.363 108.059 209.371 107.896C209.417 101.654 212.199 95.7356 215.37 90.3608C219.964 82.5845 226.188 71.9789 234.8 68.0199C236.973 67.0232 239.384 66.8952 241.715 67.4067C242.626 67.6055 243.528 67.903 244.393 68.2824C244.834 68.4702 245.264 68.6786 245.679 68.9156C246.17 69.1837 246.652 69.4732 247.111 69.797C247.522 70.0825 247.916 70.3856 248.295 70.7046C248.684 71.0347 249.063 71.387 249.414 71.7561C249.922 72.2748 250.388 72.8276 250.804 73.4083C251.142 73.8808 251.447 74.366 251.703 74.8679C252.034 75.4725 252.298 76.0889 252.508 76.7285C254.421 82.6553 252.048 89.0507 249.351 94.6554C246.859 99.8584 244.058 104.903 240.98 109.78C238.626 113.511 236.041 117.202 232.561 119.898Z" fill="#20795A"/>
<path d="M209.689 111.481C209.492 110.459 209.377 109.43 209.365 108.403C209.361 108.229 209.363 108.059 209.371 107.896C209.474 107.631 209.578 107.367 209.692 107.103C213.171 98.7941 218.097 90.9733 223.128 83.5208C227.757 76.6672 233.657 69.972 241.715 67.4067C242.626 67.6055 243.528 67.903 244.393 68.2825L244.262 68.3183C239.469 69.3611 235.246 71.9964 231.732 75.3643C228.276 78.6813 225.511 82.6179 222.927 86.6318C220.54 90.3306 218.202 94.0668 216.023 97.8913C213.552 102.236 211.312 106.762 209.689 111.481Z" fill="#51C292"/>
<path d="M213.138 118.996C212.761 118.54 212.412 118.056 212.09 117.544C213.073 115.29 214.046 113.036 215.029 110.781C216.917 106.444 218.543 101.812 221.06 97.7887C223.494 93.9085 226.793 90.6655 229.242 86.7909C231.656 82.9656 233.841 79.0202 237.047 75.7843C239.644 73.1625 242.628 70.9854 245.679 68.9157C246.17 69.1837 246.651 69.4733 247.111 69.797C243.339 72.3512 239.62 75.0302 236.641 78.5071C233.723 81.9108 231.753 85.9779 229.206 89.6417C226.616 93.3716 223.327 96.5494 221.236 100.618C219.135 104.709 217.46 109.059 215.624 113.275C214.796 115.187 213.969 117.089 213.138 118.996Z" fill="#51C292"/>
<path d="M222.666 123.622C222.071 123.629 221.481 123.598 220.894 123.508C222.774 120.787 224.454 117.928 225.99 114.995C229.986 107.363 232.99 99.2944 236.369 91.3925C239.508 84.0521 243.108 76.8223 248.295 70.7046C248.684 71.0347 249.063 71.3871 249.414 71.7561C246.587 75.0986 244.227 78.8022 242.18 82.668C238.162 90.2343 235.268 98.3335 231.861 106.177C229.239 112.217 226.327 118.16 222.666 123.622Z" fill="#51C292"/>
<path d="M232.561 119.898C232.459 119.982 232.362 120.06 232.255 120.14C231.336 120.831 230.34 121.448 229.291 121.961C230.118 120.808 230.911 119.634 231.677 118.433C236.384 111.085 239.931 103.141 242.481 94.8097C244.72 87.4948 246.603 79.8808 250.804 73.4083C251.142 73.8808 251.447 74.366 251.703 74.868C249.662 78.1826 248.179 81.8066 246.948 85.5022C245.594 89.5503 244.504 93.6794 243.171 97.737C241.841 101.806 240.25 105.788 238.378 109.639C236.658 113.177 234.712 116.603 232.561 119.898Z" fill="#51C292"/>
<path d="M235.046 101.789C234.463 102.847 237.553 108.095 236.617 106.492C235.681 104.888 229.834 100.66 228.848 101.597C227.86 102.533 232.983 111.566 232.983 111.566C232.983 111.566 227.413 105.482 225.874 107.663C225.372 108.376 225.73 109.821 226.431 111.438C224.579 110.759 222.958 110.548 222.929 111.887C222.86 115.039 230.793 118.837 230.793 118.837C240.423 122.265 241.766 106.103 241.766 106.103C241.766 106.103 235.629 100.731 235.046 101.789Z" fill="#F68672"/>
<path d="M166.859 30.8712L155.163 20.1239L151.378 28.1142L166.859 30.8712Z" fill="white"/>
<path d="M171.877 29.6748L173.053 19.7652L167.602 20.4683L171.877 29.6748Z" fill="white"/>
<path d="M166.35 37.8162L155.757 37.8329L156.23 42.8529L166.35 37.8162Z" fill="white"/>
<path d="M125.906 282.68C125.906 282.68 97.8853 290 63.3201 290C28.7547 290 0.734131 282.68 0.734131 282.68C0.734131 282.68 28.7547 275.36 63.3201 275.36C97.8853 275.36 125.906 282.68 125.906 282.68Z" fill="#CBB59B"/>
<path d="M85.076 54.1493C85.076 54.1493 89.7595 55.077 90.4206 55.7372C92.1982 57.5113 98.4857 95.425 98.4857 95.425L87.0773 96.1837L81.9395 57.8558L85.076 54.1493Z" fill="#F574A9"/>
<path d="M102.919 275.897L70.0782 276.818C70.0389 273.502 70.1426 270.715 70.2151 269.215C70.5273 269.232 70.8646 269.241 71.201 269.241C71.8594 269.257 72.5492 269.275 73.2309 269.284C75.3646 269.309 77.3623 269.284 77.8114 269.13C78.8618 268.78 81.0599 261.561 81.0599 261.561V261.552L81.5492 261.527L84.4935 261.365C85.1117 262.771 86.7077 266.078 88.5041 267.596C90.8311 269.547 99.39 272.974 101.724 274.074C102.527 274.458 102.824 275.232 102.919 275.897Z" fill="#DCDDDA"/>
<path d="M103.032 279.741L70.2071 280.662C70.1427 279.332 70.1024 278.037 70.0782 276.818L102.919 275.897L103.032 279.741Z" fill="white"/>
<path d="M50.3291 280.542C50.3291 282.076 39.1706 285.163 37.0368 284.966C34.9109 284.779 27.114 278.813 27.114 278.813C27.114 278.813 27.4187 277.594 27.908 275.701C28.4455 273.605 29.2076 270.698 30.0419 267.716C31.1486 267.417 32.4242 267.025 32.737 266.751C33.3066 266.24 35.0231 261.987 35.8818 261.987C36.7401 261.987 44.168 261.987 44.6496 262.703C45.1231 263.411 45.3149 266.956 46.0775 267.357C46.4064 267.536 47.3929 267.818 48.3878 268.064C48.9651 271.081 49.4946 274.031 49.751 275.795C50.0883 278.096 50.3291 280.006 50.3291 280.542Z" fill="#DCDDDA"/>
<path d="M27.1116 278.815C27.1116 278.815 34.9123 284.776 37.0392 284.969C39.1668 285.159 50.3329 282.083 50.3329 280.544C50.3329 280.004 50.0918 278.096 49.751 275.795C46.1176 277.34 38.335 280.4 35.7679 279.399C34.0265 278.72 30.7121 277.106 27.9038 275.699C27.4159 277.593 27.1116 278.815 27.1116 278.815Z" fill="white"/>
<path d="M96.8218 268.063L67.097 270.559L63.0442 270.903C62.3873 258.165 64.8516 217.659 65.4461 212.588C65.4699 212.433 65.4856 212.307 65.501 212.221C66.3306 207.307 68.6694 194.178 68.6694 194.178L65.9783 155.573L65.9703 155.683C65.7354 158.038 62.0738 195.641 61.6436 198.153C61.3231 199.977 58.5844 251.335 55.7987 268.063L25.5975 268.908L19.291 269.088C20.1908 257.766 31.747 220.898 34.0162 213.364C34.188 212.823 34.2978 212.433 34.3603 212.221C35.7844 207.002 42.1849 189.476 42.1849 189.476C42.1849 189.476 37.7795 151.505 38.7185 147.272C39.6572 143.046 42.1849 131.233 42.1849 131.233C42.1849 131.233 50.6507 133.893 54.5078 134.339C58.3732 134.8 81.392 133.736 81.392 133.736L89.772 131.233C89.772 131.233 90.0216 133.657 90.3902 136.89C90.8438 140.77 91.4853 145.808 92.1115 149.173C93.254 155.347 89.0751 199.609 89.0751 199.609L96.8218 268.063Z" fill="#46689C"/>
<path d="M90.3902 136.89C87.8164 137.656 83.4658 138.9 82.6758 138.9C81.5325 138.9 56.6598 140.723 55.3685 140.113C54.0857 139.51 45.0719 138.751 45.0719 138.751C45.0719 138.751 41.731 153.633 42.1849 156.215C42.6462 158.796 45.7918 188.873 45.7918 188.873C45.7918 188.873 40.0724 208.622 39.3525 214.701C38.9768 217.893 28.3045 253.213 25.5975 268.908L19.291 269.088C20.1908 257.766 31.747 220.898 34.0162 213.364C34.188 212.823 34.2978 212.433 34.3603 212.22C35.7844 207.002 42.1849 189.476 42.1849 189.476C42.1849 189.476 37.7795 151.505 38.7185 147.272C39.6572 143.046 42.1849 131.233 42.1849 131.233C42.1849 131.233 50.6507 133.893 54.5078 134.339C58.3732 134.8 81.392 133.736 81.392 133.736L89.772 131.233C89.772 131.233 90.0216 133.657 90.3902 136.89Z" fill="#2C507E"/>
<path d="M72.1905 192.622C72.1905 192.622 67.3082 209.819 67.3708 211.854C67.4022 212.925 66.4398 252.633 67.0968 270.559L63.044 270.903C62.3871 258.165 64.8514 217.659 65.4463 212.588C65.4697 212.433 65.4854 212.307 65.5008 212.221C66.3304 207.307 68.6692 194.178 68.6692 194.178L65.9781 155.573L74.0996 152.318L68.5681 159.807L72.1905 192.622Z" fill="#2C507E"/>
<path d="M53.3166 53.2627L40.7327 56.9594L44.0792 98.7978L37.7581 150.102C37.7581 150.102 78.3823 157.539 92.6052 148.336L85.6333 101.035C85.6333 101.035 92.0478 91.1639 92.6052 85.0285C93.1634 78.8931 85.0759 54.1493 85.0759 54.1493L77.9806 53.6054L53.3166 53.2627Z" fill="#F574A9"/>
<path d="M79.3504 20.3258C79.014 25.9674 76.017 31.2171 72.0815 35.3879C68.138 39.5497 64.4808 43.7196 59.6687 46.9126C58.1041 45.7308 46.6451 37.8446 44.7122 33.1182C44.2973 32.1404 43.9532 31.1312 43.6872 30.0988C40.7534 18.8702 45.6589 9.48913 56.433 5.89806C60.572 4.51317 67.9269 4.04346 71.7997 6.03134C75.516 7.9396 77.9816 11.6022 78.9353 15.6075C79.303 17.157 79.4443 18.7531 79.3504 20.3258Z" fill="#300C21"/>
<path d="M77.9815 53.6053L69.8868 50.5823L68.798 49.9239L68.1993 49.9454L60.0466 50.2478L59.3868 50.2719L58.4157 50.7729L53.3167 53.2627C55.9799 57.4191 61.9974 65.9593 66.5995 65.7858C71.0641 65.6176 75.4541 58.1599 77.9815 53.6053Z" fill="#C7614F"/>
<path d="M57.5527 51.2175C57.5527 51.2175 66.1856 52.963 67.4703 52.411C68.7559 51.8662 70.5192 50.9661 70.5192 50.9661C70.2302 50.6441 68.2357 47.6256 68.2807 46.6012C68.3849 44.2385 69.0815 40.9176 69.0815 40.9176L61.0579 38.5951C61.0579 38.5951 60.8444 40.8684 60.5083 43.2794C60.1692 45.7227 58.0347 50.8221 57.5527 51.2175Z" fill="#C7614F"/>
<path d="M60.5094 43.2759C62.7582 44.7869 65.518 46.5699 66.4032 46.8231C67.1258 47.028 67.7814 46.8508 68.278 46.6012C68.3864 44.2367 69.0844 40.9194 69.0844 40.9194L61.0602 38.596C61.0602 38.596 60.8432 40.8729 60.5094 43.2759Z" fill="#974237"/>
<path d="M55.6077 16.6945C59.6881 11.5262 66.8668 9.67698 72.7263 12.6821C74.0736 13.3727 75.1624 14.1788 75.6804 15.1002C77.7506 18.7861 81.126 32.5617 78.5772 39.3905C76.0275 46.2201 71.4443 45.5295 69.8044 45.1403C68.1644 44.7502 60.4118 41.9626 58.5328 39.573C56.653 37.1843 52.2511 24.5887 52.9238 21.2159C53.1485 20.0896 54.2459 18.4194 55.6077 16.6945Z" fill="#E27062"/>
<path d="M55.0399 15.7175C59.1203 10.5492 66.2986 8.70095 72.1592 11.7051C73.5065 12.3958 74.5953 13.2018 75.1124 14.1233C77.1826 17.8092 80.558 31.5848 78.0092 38.4144C75.4595 45.2432 70.8763 44.5534 69.2364 44.1633C67.5973 43.7733 59.8444 40.9856 57.9649 38.596C56.0858 36.2073 51.6833 23.6127 52.356 20.239C52.581 19.1127 53.678 17.4433 55.0399 15.7175Z" fill="#C7614F"/>
<path d="M70.4613 32.432C70.1106 32.3944 69.7465 32.2978 69.4146 32.4159C69.9451 33.1093 70.7574 33.5798 71.6225 33.6952L71.8229 33.6926L72.0251 33.5557C72.3982 33.1915 72.6987 32.7532 72.9036 32.2746C72.9457 32.177 72.9832 32.075 72.9823 31.9695C72.9788 31.6206 72.7694 31.7485 72.5923 31.8746C72.3865 32.0205 72.162 32.1404 71.9267 32.2316C71.4633 32.4123 70.956 32.4857 70.4613 32.432Z" fill="#E27062"/>
<path d="M71.6458 33.4886C71.8032 33.2586 71.992 33.0502 72.1548 32.8238C72.3561 32.5438 72.536 32.2486 72.6791 31.9346C71.4221 31.4604 71.1564 30.3359 70.8943 29.0521C70.7762 28.4724 70.7959 27.8667 70.9516 27.2968C71.0321 26.9971 71.1502 26.7072 71.3023 26.4361C71.3792 26.2984 71.4642 26.166 71.5572 26.0381C71.6485 25.9137 71.754 25.8305 71.8784 25.7401C71.831 25.8323 71.8077 25.9307 71.7666 26.0237C71.661 26.2653 71.5438 26.4952 71.4642 26.7475C71.3837 27.0007 71.3255 27.261 71.2888 27.524C71.2164 28.0492 71.2307 28.5886 71.3398 29.1084C71.4463 29.6184 71.6467 30.1104 71.9482 30.5363C72.2926 31.0229 72.799 31.464 73.3662 31.6573C73.3715 31.659 72.8437 32.6941 72.7882 32.7809C72.646 33.0063 72.4832 33.2193 72.298 33.4116C72.1173 33.6004 71.9106 33.8232 71.6458 33.8777C71.5626 33.8947 71.474 33.8965 71.3953 33.8661L71.4955 33.7328L71.5331 33.6702L71.6458 33.4886Z" fill="#974237"/>
<path d="M64.9316 35.8745C67.692 37.2236 71.0446 37.2979 73.8618 36.0714C72.51 37.1244 70.9829 37.8275 69.2696 37.8087C67.5565 37.79 66.2596 36.957 64.9316 35.8745Z" fill="#974237"/>
<path d="M67.7278 38.707C68.8841 39.3341 70.3486 39.3529 71.5197 38.7562C71.0929 39.3583 70.473 39.7546 69.7358 39.7895C68.9995 39.8253 68.21 39.2652 67.7278 38.707Z" fill="#974237"/>
<path d="M57.4498 32.6942C57.035 32.5206 54.8499 29.9521 53.5023 31.6582C52.155 33.3642 51.915 36.0768 53.3503 37.5144C54.6604 38.826 56.4608 40.2207 58.5329 39.573L57.4498 32.6942Z" fill="#C7614F"/>
<path d="M53.6581 33.7114C53.5944 34.0755 53.6731 34.4449 53.8062 34.7921C54.3728 36.2655 55.8572 37.3239 57.2765 38.3035C56.8225 37.6003 56.6208 36.7862 56.653 35.9784C56.6646 35.6974 56.7033 35.4174 56.6879 35.1365C56.6268 34.0084 54.0341 31.5598 53.6581 33.7114Z" fill="#E27062"/>
<path d="M57.9824 38.6882L57.9028 38.6471C57.8517 38.6184 57.7699 38.5817 57.6763 38.5227C57.4869 38.4055 57.2238 38.2149 56.9686 37.9242C56.7145 37.6343 56.4762 37.2407 56.3445 36.7647C56.2228 36.2897 56.2065 35.7287 56.4147 35.1741L56.5004 34.9701L56.5241 34.92L56.5273 34.9146L56.5269 34.9164L56.5283 34.9155H56.5286L56.5241 34.9075L56.4993 34.8663L56.4483 34.7831L56.3434 34.6212C56.2019 34.4092 56.0505 34.2115 55.8965 34.0281C55.7423 33.8456 55.5843 33.6774 55.4285 33.5253C55.2719 33.3732 55.1217 33.2318 54.9742 33.1289C54.8275 33.0252 54.6691 32.9617 54.5241 32.9509C54.3787 32.9429 54.2445 32.9867 54.1558 33.0404C54.066 33.0959 54.0187 33.162 54.0002 33.2112L53.9811 33.2873L53.9803 33.2076C53.9863 33.154 54.0187 33.0726 54.1065 32.9939C54.1942 32.9169 54.334 32.8408 54.5245 32.8238C54.7149 32.8095 54.9249 32.865 55.115 32.9634C55.3073 33.0627 55.482 33.1898 55.6668 33.3311C55.8507 33.4734 56.0376 33.6353 56.219 33.8169C56.4004 33.9985 56.5772 34.1998 56.7398 34.4199L56.8592 34.5881L56.9169 34.6749L56.9937 34.7983L57.0472 34.8842L57.0067 34.9763L56.9459 35.1087L56.8725 35.285C56.6912 35.7672 56.6754 36.2592 56.7429 36.6967C56.8194 37.1333 56.9833 37.5153 57.1723 37.8141C57.3622 38.1138 57.5711 38.3321 57.7266 38.4753L57.9149 38.6327L57.9824 38.6882Z" fill="#974237"/>
<path d="M77.2453 21.9442C77.2453 21.9442 75.1626 20.5065 73.9191 20.6917C72.6737 20.8778 72.3579 22.0453 72.8625 22.2466C73.368 22.4479 77.2453 21.9442 77.2453 21.9442Z" fill="#470A27"/>
<path d="M59.6687 24.8258C59.6687 24.8258 62.419 22.1375 64.3407 21.666C66.2624 21.1945 67.0484 22.2905 66.3431 22.7825C65.6376 23.2754 59.6687 24.8258 59.6687 24.8258Z" fill="#470A27"/>
<path d="M65.2261 33.4215C65.1789 34.0209 63.8579 34.4047 62.2758 34.2803C60.6939 34.1551 59.4498 33.5691 59.4973 32.9697C59.5444 32.3703 60.8651 31.9856 62.4471 32.1108C64.0295 32.2361 65.2736 32.823 65.2261 33.4215Z" fill="#E27062"/>
<path d="M80.3773 29.5656C80.5929 29.9664 79.7886 30.8172 78.5809 31.4667C77.3731 32.1153 76.219 32.3166 76.0043 31.9158C75.7878 31.5159 76.593 30.6642 77.8007 30.0147C79.0085 29.3652 80.1626 29.1639 80.3773 29.5656Z" fill="#E27062"/>
<path d="M52.3802 35.0417C50.0287 31.9212 47.8123 27.9096 47.1567 24.0574C46.5022 20.2051 47.1637 16.0387 49.4657 12.8807C51.552 10.0196 54.8066 8.18654 58.1946 7.15592C63.0257 5.68693 68.5352 5.78532 72.8375 8.42986C77.1389 11.0726 79.7977 16.5979 78.2303 21.3976C76.8938 19.509 74.9909 18.0266 72.833 17.1928C72.6782 18.1045 72.3213 18.9812 71.7952 19.7416C71.3542 18.3585 70.6054 17.0738 69.6186 16.0083C69.3761 17.5292 68.4389 18.9248 67.1232 19.7237C66.9358 18.2574 66.3593 16.8439 65.4678 15.6648C64.6765 17.7815 63.0806 19.5851 61.076 20.6282C61.0785 19.2549 61.0802 17.8817 61.082 16.5084C60.5236 19.6012 58.4879 22.3942 55.7142 23.8731C55.7142 23.8731 56.2583 30.9138 55.9626 32.1225C55.9626 32.1225 54.7566 31.2207 53.6355 32.0876C52.5151 32.9536 52.3802 35.0417 52.3802 35.0417Z" fill="#300C21"/>
<path d="M64.3798 26.811C63.1 26.972 61.966 27.7763 61.1696 28.7917C63.0186 28.1297 65.1102 27.958 67.0382 28.3346L67.6505 28.3901C67.0665 27.2396 65.6602 26.65 64.3798 26.811Z" fill="#121414"/>
<path d="M75.1778 25.6158C76.0609 25.436 76.9913 25.7151 77.7454 26.2089C76.374 26.1848 74.9515 26.5382 73.759 27.2181L73.3662 27.3916C73.4959 26.4997 74.2948 25.7947 75.1778 25.6158Z" fill="#121414"/>
<path d="M70.7198 10.4365C71.1108 11.4144 71.1108 12.5407 70.7127 13.5114C69.7026 11.7034 68.0597 10.2639 66.1429 9.50521C66.5339 10.8507 66.6824 12.267 66.5888 13.6671C65.5251 12.1104 63.8427 10.9992 61.9961 10.6163C62.3792 12.0871 62.3403 13.6599 61.8787 15.0994C60.9788 13.4014 59.445 12.0478 57.6456 11.3598C56.9963 17.5721 52.8261 23.6127 47.3412 26.5937C46.1754 28.6352 45.2832 30.8342 44.7122 33.1182C44.2973 32.1404 43.9532 31.1312 43.6872 30.0988C43.0928 27.8372 42.8265 25.6543 42.858 23.5725C42.9673 15.3266 47.8263 8.76984 56.433 5.89806C60.572 4.51316 67.9269 4.04346 71.7997 6.03134C73.7714 7.04764 75.3988 8.55063 76.6119 10.3497C77.7069 11.9306 78.4897 13.7306 78.9353 15.6075C76.5332 13.4094 73.7401 11.6407 70.7198 10.4365Z" fill="#470A27"/>
<path d="M68.2319 9.12139C66.8703 7.68192 64.9374 6.79802 62.9584 6.70409C63.1226 7.58799 63.2869 8.4719 63.4511 9.3558C62.3555 8.44058 60.9399 7.90113 59.5077 7.86982C59.5622 8.66783 59.6172 9.46583 59.672 10.2638C58.4436 9.21533 56.8553 8.59716 55.2355 8.54259C54.2266 15.2872 49.2345 21.2258 42.8578 23.5724C42.9671 15.3266 47.8261 8.76982 56.4328 5.89804C60.5718 4.51315 67.9267 4.04344 71.7995 6.03132C73.7713 7.04762 75.3986 8.55061 76.6117 10.3497C73.8571 8.87894 70.861 7.85371 67.7855 7.32229C67.934 7.92438 68.0833 8.5193 68.2319 9.12139Z" fill="#630D30"/>
<path d="M40.7327 56.9593C40.7327 56.9593 32.2735 60.672 31.1576 63.2754C30.0422 65.8788 22.6055 102.154 22.2336 104.002C22.2336 104.002 41.3834 108.827 48.0768 106.595L49.0063 85.7728L40.7327 56.9593Z" fill="#F574A9"/>
<path d="M40.7327 60.9046C40.7327 60.9046 49.1922 73.4546 49.0062 75.2671C48.8207 77.0805 44.871 103.101 44.871 103.101C44.871 103.101 51.888 77.6379 51.0514 74.9889C50.2151 72.339 40.7327 60.9046 40.7327 60.9046Z" fill="#F14A8F"/>
<path d="M56.7351 77.4957C53.8712 82.9261 42.018 84.5687 41.3914 84.6474L41.3683 84.6554C41.3683 84.6554 44.248 78.9825 45.4369 74.7026C46.6264 70.4307 36.9081 55.1817 40.2574 48.9532C43.5983 42.7248 50.0921 38.563 50.0921 38.563L50.6324 39.0469L51.4696 39.7913L51.6496 39.947L52.8543 40.9955L50.8906 45.7603C50.8906 45.7603 56.8917 52.6776 57.4938 54.4696C58.0963 56.2606 59.6849 71.9176 56.7351 77.4957Z" fill="#300C21"/>
<path d="M51.5165 79.0765C50.0606 80.7897 41.9002 84.4202 41.3914 84.6474L41.3683 84.6554C41.3683 84.6554 44.248 78.9825 45.4369 74.7026C46.6264 70.4307 36.9081 55.1817 40.2574 48.9532C43.5983 42.7248 50.0924 38.563 50.0924 38.563L50.6324 39.0469L51.4696 39.7913L51.6496 39.947C50.7026 41.4813 48.9266 44.1258 48.2458 45.7603C47.0408 48.6786 52.4317 55.2676 52.4317 58.2011C52.4317 61.1355 53.0185 77.3087 51.5165 79.0765Z" fill="#470A27"/>
<path d="M48.6215 65.5953C48.9888 68.2004 48.4416 76.5653 47.7846 77.9573C47.1349 79.3503 41.3683 84.6554 41.3683 84.6554C41.3683 84.6554 44.248 78.9825 45.4369 74.7026C46.6264 70.4307 36.9081 55.1817 40.2574 48.9532C43.5983 42.7248 50.0924 38.563 50.0924 38.563L50.6324 39.0469C47.6276 42.5137 42.4244 48.8826 42.2989 50.0018C42.1117 51.6524 48.2458 62.9901 48.6215 65.5953Z" fill="#630D30"/>
<path d="M70.8951 92.5506L56.6335 93.4237C56.6335 93.4237 50.2662 61.5873 54.1278 52.4611C54.7076 51.0816 55.5236 50.2245 56.6335 50.0697C60.9927 49.465 64.6499 60.7955 67.1636 71.906C69.5308 82.3303 70.8951 92.5506 70.8951 92.5506Z" fill="#FAB663"/>
<path d="M62.8802 62.8836C60.5077 61.2205 57.7532 60.1058 54.8917 59.6504C57.1448 61.8619 59.7262 63.0384 62.8802 62.8836Z" fill="#F7923D"/>
<path d="M63.7328 70.9962C61.3602 69.333 58.6061 68.2174 55.7446 67.7621C57.9977 69.9745 60.5789 71.1509 63.7328 70.9962Z" fill="#F7923D"/>
<path d="M64.6581 79.4755C62.2857 77.8124 59.5308 76.6967 56.6697 76.2414C58.9224 78.4538 61.5038 79.6294 64.6581 79.4755Z" fill="#F7923D"/>
<path d="M67.1636 71.9059C66.7964 70.6812 66.4536 69.4484 66.1034 68.2245C65.05 64.5995 63.8584 60.9342 61.6623 57.8656C59.8172 55.3024 57.1563 53.1875 54.1278 52.4611C54.7076 51.0815 55.5236 50.2245 56.6335 50.0697C60.9928 49.4649 64.65 60.7955 67.1636 71.9059Z" fill="#F7923D"/>
<path d="M75.5274 83.759C75.4746 86.5601 75.4155 89.0982 75.3744 90.7819C75.3449 91.9512 74.5773 92.878 73.6397 92.878H64.5327C63.5944 92.878 62.8272 91.9512 62.7975 90.7819C62.756 89.0982 62.6972 86.5601 62.6442 83.759C62.5791 80.346 62.532 76.5509 62.5438 73.4475C62.5613 70.1158 62.6442 67.593 62.8507 67.1814C63.5471 65.835 65.9194 64.4904 65.9194 64.4904L66.4799 53.2448H71.6858L72.2521 64.4904C72.2521 64.4904 74.6247 65.835 75.3207 67.1814C75.5274 67.593 75.6106 70.1158 75.6222 73.4475C75.6401 76.5509 75.5927 80.346 75.5274 83.759Z" fill="#2EAE7D"/>
<path d="M71.7522 54.1896H66.4196C66.0306 54.1896 65.7155 53.8746 65.7155 53.4855V52.8789C65.7155 52.4888 66.0306 52.1739 66.4196 52.1739H71.7522C72.1404 52.1739 72.4563 52.4888 72.4563 52.8789V53.4855C72.4563 53.8746 72.1404 54.1896 71.7522 54.1896Z" fill="#363950"/>
<path d="M75.5274 83.759H62.6442C62.5791 80.346 62.532 76.5509 62.5438 73.4474H75.6222C75.6401 76.5509 75.5927 80.346 75.5274 83.759Z" fill="#20795A"/>
<path d="M95.8135 62.438C96.0094 61.2544 96.1346 60.0198 95.7902 58.8711C95.4458 57.7206 94.5314 56.6703 93.3434 56.4968C91.7939 56.2704 90.4116 57.5596 89.7022 58.9561C88.7977 60.7364 88.566 62.7977 88.7109 64.79C88.8425 66.5954 89.2146 72.9071 91.8171 71.515C94.3266 70.1731 95.4019 64.9242 95.8135 62.438Z" fill="#20795A"/>
<path d="M89.6449 78.0011L90.4876 77.9099C90.6236 77.4071 91.9996 71.8434 92.1177 71.3316C92.8137 68.2747 93.1537 65.1336 93.1215 61.9899C93.1197 61.4853 92.3333 61.479 92.3395 61.9827C92.3708 65.2642 91.9969 68.5279 91.2266 71.702C91.1246 72.118 89.7648 77.5878 89.6449 78.0011Z" fill="#51C292"/>
<path d="M102.008 62.5758C102.95 61.8333 103.971 61.1283 105.143 60.8751C106.316 60.6219 107.679 60.9153 108.403 61.8717C109.35 63.1197 108.887 64.9537 108.007 66.2483C106.883 67.8989 105.191 69.0968 103.375 69.9315C101.73 70.6874 96.0226 73.4071 95.986 70.4557C95.9502 67.6108 100.029 64.136 102.008 62.5758Z" fill="#20795A"/>
<path d="M90.7729 78.0727L90.8454 78.0637L91.9682 77.9349L91.9959 77.9295C92.4871 77.4259 95.595 71.5383 96.105 71.0704C98.516 68.858 101.195 66.9551 104.079 65.4011C104.524 65.1586 104.144 64.4769 103.697 64.7131C100.932 66.2036 98.3442 68.0143 96.0066 70.1033C95.0931 70.9138 91.6067 77.1798 90.7729 78.0727Z" fill="#51C292"/>
<path d="M92.7895 65.5711C93.8765 65.8976 94.9617 66.3521 95.7642 67.1555C96.8467 68.2398 97.2806 69.8608 97.1482 71.3871C96.8673 74.6248 93.9651 77.4268 90.7202 77.5932C87.6534 77.7515 84.4381 75.3637 83.454 72.4633C82.6014 69.9512 84.6027 66.4908 86.9171 65.5308C88.7735 64.7605 90.9135 65.0083 92.7895 65.5711Z" fill="#E83847"/>
<path d="M91.2587 67.2136C91.4922 64.8581 92.3483 62.5669 93.7153 60.6336C94.0624 60.8832 94.3648 61.1891 94.712 61.4388C93.6679 63.4034 92.071 65.1425 91.2587 67.2136Z" fill="#312A2A"/>
<path d="M91.3519 66.7251C91.8314 65.2615 91.6793 63.6029 90.9412 62.2502C90.2041 60.8984 88.8907 59.8722 87.4003 59.4831C86.9413 60.8957 86.9342 62.4371 87.6203 63.7549C88.3074 65.0718 89.9312 66.293 91.3519 66.7251Z" fill="#2EAE7D"/>
<path d="M79.3592 65.5478C80.3916 65.0763 81.5072 64.7024 82.6398 64.7766C84.1696 64.8786 85.5643 65.8108 86.4706 67.0463C88.3941 69.6658 88.0595 73.6863 85.7298 75.9506C83.5282 78.0915 79.5363 78.4162 76.8837 76.8846C74.5872 75.5579 73.8106 71.6367 74.9173 69.3885C75.8048 67.5858 77.577 66.3619 79.3592 65.5478Z" fill="#F1435B"/>
<path d="M79.2902 67.7915C77.9134 65.8663 77.0456 63.5796 76.7996 61.2249C77.2245 61.1838 77.6548 61.2142 78.0798 61.173C78.5897 63.3381 78.5369 65.699 79.2902 67.7915Z" fill="#312A2A"/>
<path d="M79.0399 67.363C78.4351 65.9459 77.2264 64.7999 75.7798 64.2694C74.3332 63.7398 72.6701 63.8337 71.2932 64.5244C71.8792 65.8887 72.891 67.0526 74.275 67.5902C75.6599 68.1279 77.6854 67.9741 79.0399 67.363Z" fill="#20795A"/>
<path d="M79.0818 58.4194C79.0559 58.1322 79.0362 57.8352 79.131 57.5623C79.225 57.2903 79.4629 57.047 79.7519 57.0371C80.1276 57.0246 80.3996 57.3834 80.5839 57.7126C81.1699 58.7548 81.585 59.8928 81.8096 61.0675C81.9017 59.39 82.4913 57.7439 83.4834 56.3894C83.8055 55.9502 84.4192 55.5127 84.8307 55.8679C85.0803 56.0835 85.0732 56.4664 85.0356 56.7938C84.8898 58.0687 84.6008 59.3265 84.1768 60.537C84.8951 59.5931 86.0179 58.9696 87.1988 58.8586C87.5173 58.8282 87.9101 58.8774 88.0398 59.17C88.1588 59.4401 87.9745 59.7434 87.7866 59.9724C87.0432 60.8778 86.111 61.6266 85.066 62.1571C85.5527 61.9174 86.0707 61.6723 86.6102 61.7215C87.1496 61.7698 87.69 62.2412 87.6014 62.7762C87.5334 63.194 87.1362 63.4669 86.7649 63.6709C85.6252 64.2971 81.7899 66.0712 80.5955 65.0656C80.0301 64.5897 79.8333 62.7548 79.6696 62.0569C79.3896 60.8599 79.1927 59.6432 79.0818 58.4194Z" fill="#2EAE7D"/>
<path d="M84.2119 67.6001C84.0983 68.7202 83.6286 69.7687 83.0721 70.7609C82.9916 70.9058 82.9012 71.0561 82.8127 71.1983C82.7545 71.3066 82.6928 71.405 82.632 71.5088C81.1746 73.935 79.5499 76.4105 77.7365 78.7034C77.6327 78.8358 77.5254 78.9709 77.4162 79.1006C76.3078 80.4802 75.1251 81.7881 73.8681 82.978C72.0735 84.6769 71.1726 83.7966 71.5886 81.662C71.7362 80.9024 71.9008 80.1456 72.0896 79.3905C72.1236 79.2268 72.1665 79.0586 72.2059 78.8931C72.6281 77.2076 73.1336 75.5373 73.7187 73.8974C73.7778 73.7391 73.8368 73.5816 73.8958 73.4233C74.2045 72.5886 74.5328 71.761 74.8835 70.9469C74.9488 70.7913 75.0168 70.6401 75.0884 70.488C75.4901 69.5746 75.9204 68.6755 76.3731 67.7889C76.713 67.1286 77.0825 66.4612 77.52 65.8627C77.6309 65.7097 77.7446 65.5612 77.8635 65.427C78.1293 65.1076 78.4236 64.8142 78.7492 64.5575C79.8147 63.7317 81.3347 63.356 82.5317 63.975C83.7923 64.6228 84.3496 66.1928 84.2119 67.6001Z" fill="#F68640"/>
<path d="M73.7516 80.074C73.2005 79.8485 72.6422 79.6204 72.0894 79.3905C72.1234 79.2268 72.1663 79.0586 72.2057 78.8931C72.7836 79.1284 73.3615 79.3645 73.9395 79.6007C74.2392 79.7305 74.054 80.1975 73.7516 80.074Z" fill="#F46F2E"/>
<path d="M77.7363 78.7034C77.6325 78.8358 77.5252 78.9709 77.416 79.1006C76.3067 78.5209 75.1696 77.9913 74.0119 77.5154C73.7096 77.3919 73.8974 76.9186 74.1989 77.0412C75.404 77.5359 76.5849 78.0915 77.7363 78.7034Z" fill="#F46F2E"/>
<path d="M77.112 75.5981C76.033 74.9334 74.896 74.3653 73.7186 73.8974C73.7777 73.7391 73.8367 73.5817 73.8958 73.4233C75.1169 73.9046 76.2934 74.5004 77.4126 75.1929C77.6917 75.3647 77.3911 75.7708 77.112 75.5981Z" fill="#F46F2E"/>
<path d="M79.6402 73.0359C78.1345 72.1681 76.5367 71.4685 74.8834 70.9469C74.9487 70.7913 75.0167 70.6401 75.0883 70.488C76.7756 71.0221 78.4029 71.7378 79.9444 72.6279C80.2244 72.7881 79.9193 73.196 79.6402 73.0359Z" fill="#F46F2E"/>
<path d="M83.0719 70.7608C82.9913 70.9058 82.901 71.0561 82.8124 71.1983C81.3354 70.2643 79.7134 69.5745 78.0055 69.1702C77.696 69.0941 77.7488 68.5904 78.07 68.6674C79.8413 69.0888 81.5313 69.7982 83.0719 70.7608Z" fill="#F46F2E"/>
<path d="M81.8929 67.3442C81.7998 67.4623 81.6558 67.4632 81.535 67.3997C80.2798 66.701 78.9245 66.1776 77.5199 65.8627C77.6308 65.7098 77.7444 65.5612 77.8634 65.427C79.2492 65.7661 80.5849 66.2921 81.8374 66.9873C81.9564 67.058 81.9662 67.2458 81.8929 67.3442Z" fill="#F46F2E"/>
<path d="M53.9777 131.233L63.1336 138.295L101.53 131.507L97.9042 71.7351L93.814 75.7324L87.7716 72.8507L85.0761 77.3132L79.4917 74.1524L76.2442 78.5218L71.6306 75.9184L69.0845 79.9157L64.7971 77.2201L62.3616 82.0029L60.5095 78.8931L58.7674 81.0313L56.3505 78.9861L53.9777 82.0029V131.233Z" fill="#C07E53"/>
<path d="M63.1336 138.295L53.9777 131.233V82.0029L56.3505 78.9862L58.7674 81.0313L60.5095 78.8931L62.3616 82.0029L63.1336 138.295Z" fill="#A55D39"/>
<path d="M77.7319 101.433C78.2866 102.836 68.2267 105.551 68.2267 105.551L67.9464 108.433L72.2567 107.692L78.2928 109.738C78.2928 109.738 78.4217 110.971 78.4888 112.49C78.4995 112.68 78.504 112.873 78.5111 113.069C78.5415 113.976 78.5406 114.941 78.4735 115.777C78.4709 115.858 78.4619 115.94 78.4575 116.019C78.4145 116.435 78.3555 116.813 78.2758 117.126C78.1846 117.475 78.0656 117.742 77.909 117.899L72.9706 117.362C72.9706 117.362 68.1026 122.179 67.1 122.458C66.7016 122.567 64.9665 122.054 63.021 121.396C62.088 121.079 58.4678 119.817 57.5602 119.486L56.9253 115.032L60.2585 110.39C60.6317 109.827 61.1413 109.091 61.7364 108.291L61.7349 108.289C62.0271 107.895 62.3406 107.487 62.6677 107.076C63.8559 105.585 65.2405 104.069 66.5604 103.141C67.1192 102.745 67.6665 102.459 68.1819 102.326C71.7379 101.407 77.179 100.033 77.7319 101.433Z" fill="#C7614F"/>
<path d="M78.4734 115.777C78.4707 115.858 78.4618 115.94 78.4573 116.019C78.256 115.969 77.9939 115.902 77.6772 115.824C76.957 115.648 75.9818 115.426 74.9217 115.208C73.8607 114.998 72.89 114.872 72.1501 114.859C71.964 114.858 71.795 114.858 71.6447 114.856C71.4953 114.869 71.3655 114.877 71.26 114.888C71.0435 114.9 70.9182 114.907 70.9182 114.907C70.9182 114.907 71.0256 114.844 71.2295 114.737C71.3288 114.684 71.4559 114.619 71.6026 114.549C71.7538 114.493 71.9247 114.432 72.1224 114.368C72.8971 114.123 74.0459 113.999 75.2116 114.23C76.3719 114.47 77.3023 114.953 77.9178 115.364C78.1451 115.518 78.3294 115.658 78.4734 115.777Z" fill="#974237"/>
<path d="M78.4888 112.49C78.4995 112.68 78.504 112.873 78.5111 113.069L78.385 113.04C77.6657 112.865 76.6897 112.643 75.6313 112.427C74.5685 112.215 73.5978 112.088 72.8588 112.076C72.6718 112.075 72.5054 112.072 72.3578 112.073C72.2057 112.084 72.076 112.096 71.9705 112.102C71.7522 112.117 71.6305 112.125 71.6305 112.125C71.6305 112.125 71.7361 112.063 71.9374 111.954C72.0385 111.903 72.1637 111.836 72.3122 111.767C72.4616 111.71 72.637 111.648 72.8302 111.585C73.6103 111.34 74.7581 111.215 75.9212 111.449C76.9983 111.668 77.8786 112.1 78.4888 112.49Z" fill="#974237"/>
<path d="M61.1142 120.737C61.1142 120.737 30.6931 124.072 28.3227 123.096C25.9522 122.12 24.5579 119.47 24.5579 119.47L25.4427 104.746C25.4427 104.746 37.7866 107.059 39.8869 107.046L38.0881 111.528L58.533 113.069L61.1142 120.737Z" fill="#C7614F"/>
<path d="M97.5678 101.123C97.3727 102.14 101.289 105.6 100.1 104.54C98.9097 103.481 93.0168 101.587 92.4603 102.613C91.9047 103.64 98.4839 109.645 98.4839 109.645C98.4839 109.645 92.3234 106.164 91.6489 108.352C91.4288 109.067 92.1042 110.15 93.1062 111.282C91.4145 111.222 90.0367 111.481 90.3687 112.581C91.1515 115.17 98.6315 116.158 98.6315 116.158C107.398 116.395 104.195 102.855 104.195 102.855C104.195 102.855 97.761 100.105 97.5678 101.123Z" fill="#C7614F"/>
<path d="M92.1151 36.9267L103.969 26.0336L107.806 34.1318L92.1151 36.9267Z" fill="white"/>
<path d="M87.0272 35.7135L85.8364 25.6695L91.3617 26.3825L87.0272 35.7135Z" fill="white"/>
<path d="M92.6302 43.9656L103.367 43.9835L102.887 49.0713L92.6302 43.9656Z" fill="white"/>
</svg>
